<svg id="Layer_1" data-name="Layer 1" xmlns="http://www.w3.org/2000/svg" viewBox="0 0 1362.41 315.42"><defs><style>.cls-1{fill:#c03431;}</style></defs><path d="M151.08,278.75c3.55.53,6.59,0,8.44-3.62.34-.66,1.41-1,2.18-1.38,1.49-.78,3-1.6,4.53-2.25,2-.81,3.94-2,6-2.11,5.14-.31,5.21-.17,4.84-6.18-7.65,1.77-14.22,5.79-21,9.39l-.73-.93c2.42-2.07,4.84-4.12,7.25-6.2,1.79-1.55,3.53-3.16,5.33-4.69a4.87,4.87,0,0,1,2-1.26c4-.76,6.13-3.68,8.38-6.65,3.1-4.1,6.36-8.09,9.69-12a24.66,24.66,0,0,1,3.73-3l1,.92c-1.46,2.17-3,4.31-4.37,6.51-.61.94-1.44,2-1.47,3a2.76,2.76,0,0,0,1.78,2.07,3.29,3.29,0,0,0,2.72-1.31c2.86-5.77,7.85-9.08,13.19-12.13a4.6,4.6,0,0,0,2.15-3.28c-.13-3.72.86-4.83,4.52-4.17l2.2.42,2.14-5.66-.53-1c-1.92.55-3.82,1.19-5.77,1.62a11.11,11.11,0,0,1-2.76,0c.3-.91.33-2.2,1-2.68a32.42,32.42,0,0,1,6.12-3.71c4.39-2,9-3.47,13.33-5.52a23.38,23.38,0,0,0,6.17-4.48c2.63-2.6,5.53-2.32,7.8,1.4l9.24-6v5.32l1,.65c.89-1,1.75-2,2.69-3s1.71-2.13,2.81-2.5c14-4.72,28.55-6.89,43.18-7.77,12.32-.74,24.72-.28,37.08,0a11.81,11.81,0,0,1,7.19,2.64c2.52,2.29,5.29,3.32,8.33,4.38a59.74,59.74,0,0,1,8.21,4.08c6.57,3.49,13.13,7,19.66,10.54,13.9,7.57,26.36,17,36.75,29,4.87,5.63,10,11.05,14.7,16.79a73.49,73.49,0,0,1,7.36,10.72c3.05,5.43,5.36,11.28,8.58,16.6,1.44,2.38,4.3,3.9,7.22,6.41-.58,6.28,6,10.81,8,17.31.33,1.07,1.15,2.23.95,3.18-.47,2.18-1,4,1.91,4.89.46.15.75,2.39.37,3.37-1.42,3.6-.55,6.05,2.64,8.25,1,.7,1.34,2.78,1.5,4.27.24,2.32-.33,4.78.16,7,.92,4.24,2.59,8.32,3.49,12.56.5,2.36.92,5.34-.06,7.31-3.65,7.29-3.85,15.25-5.22,23A102.32,102.32,0,0,0,467.47,402c-.2,4.22-2.13,7.33-5.9,8.91-3.15,1.31-5.13,3.47-7.05,6.16-2.56,3.6-5.73,6.77-8.57,10.17-.7.84-1.07,1.95-1.7,2.86-.8,1.17-1.47,2.78-2.62,3.31-2.4,1.12-3.11,2.38-1.9,4.83.36.73,0,1.79,0,2.69l-1.38,1a9.39,9.39,0,0,0-1.11-2.49c-2.7-3.14-4.93-3.31-8.32-.8-.82.61-1.66,1.22-2.52,1.78-2.66,1.71-3.6,4-2.54,7.07a36.21,36.21,0,0,1,.89,4.68c-5.4-1.56-5.83-1.27-7,4a13,13,0,0,1-10.37,9.73c-2.9.41-4.47-1.49-3.81-4.34a11.42,11.42,0,0,0-.25-3.31c-1,.54-2.48.83-2.94,1.68-1.49,2.7-2.49,5.67-3.91,8.42a7.74,7.74,0,0,1-2.88,3.46c-5.39,2.62-10.71,5.26-14.6,10a1.12,1.12,0,0,1-.54.41c-10,1.74-16.58,10.27-26,13.12-12.64,3.84-25.27,7.8-38.08,10.94a171.8,171.8,0,0,1-49.76,5c-19.46-1-37.83-6.38-54.18-17.5-9.08-6.17-15.86-14.53-21.94-23.45-3.39-5-6-10.43-9.25-15.54a60.24,60.24,0,0,0-5-6c-2.17-2.61-4.43-5.15-6.46-7.87-1.33-1.78-1-3.46,1.21-4.43,2.47-1.08,2.43-2.81,1.17-4.74-3.42-5.19-5.62-10.69-5.2-17.09.17-2.56-1.45-3.41-3.84-2.46-5.78,2.27-9.81.09-11-5.95-.09-.43-.19-1.06,0-1.32,2.68-3.05.65-5.72-.53-8.54q-3.93-9.35-7.67-18.77a7.57,7.57,0,0,1-.24-4.13c4.09,4.3,5.09,10.32,8.73,15-1.19-7.16-3.54-13.94-5-21.11a37.73,37.73,0,0,0,2.9,5.4c2.93,3.84,5.92,7.58,6.86,12.53.12.68,1.39,1.14,2.12,1.7.21-.89.81-1.91.56-2.66-.69-2.1-1.73-4.08-2.93-6.76l3,.58c.1-.29.32-.6.29-.89-.22-2.5-.68-5-.69-7.51,0-3,.36-6.09.49-9.14a72.21,72.21,0,0,0,.09-7.5c-.19-3.19-.57-6.38-1.07-9.54-.15-.9-1-1.69-1.53-2.53-.51.9-1.4,1.78-1.47,2.72-.2,2.78-.07,5.59-.07,8.39l-1.67.3c-.39-1.29-1.22-2.62-1.09-3.85.78-7.5,1.8-15,2.71-22.45.64-5.19,1.23-10.38,1.85-15.57.12-1,.31-2,.52-3.31l3.28,1.58,2.58-5.07c-.41-.52-.46-.66-.55-.69-5-1.28-5-1.28-4.33-7a71.54,71.54,0,0,1,1-7.48c.31-1.32,1.34-2.47,2.54-4.59-1.52.38-2.8.3-3.39.9-5,5.18-11,9.85-14.61,15.9-5.14,8.55-9.25,17.9-9.93,28.26-.09,1.43-.88,2.82-1.34,4.22l-1.25-.24a13.61,13.61,0,0,1-.32-2.81c.83-10.44,3-20.26,7.91-29.91,3.17-6.18,5.76-12.13,11.26-16.59,1.18-1,1.23-3.34,1.8-5.06ZM427,285a28.61,28.61,0,0,0,.91,5.76c.41,1.14,1.75,2,2.83,2.79.16.12,1.56-.8,1.66-1.37.47-2.62-2.75-6.64-5.49-7.08,1.06-4.82-.73-8.55-4.51-11.42-3.38-2.56-6.87-5-10.24-7.53a15.55,15.55,0,0,1-2.06-2.35l.68-.61c.72.49,1.38,1.26,2.17,1.41,1.43.29,3.12.63,4.32.09.56-.25.82-3,.19-3.74a27,27,0,0,0-6.41-5.76c-4.09-2.47-8.5-4.42-12.76-6.62-2.51-1.29-5-2.62-7.48-3.92-1.77,3.24-1.9,3.55.07,4.59a7.59,7.59,0,0,1,4.47,7.8,2.39,2.39,0,0,0,.34,1.63c3.2,3.07,6.2,6.43,9.8,9,2.51,1.77,3.21,3.26,1.93,5.89a12.69,12.69,0,0,0-1.53,3.8c-.12,1.06.23,2.78,1,3.22,4.14,2.44,5.43,6.22,5.88,10.65.33,3.3,1.64,6.13,4.81,7.77.47.25,1.09.71,1.15,1.14.74,5,5.71,8.84,4.33,14.53-.11.43.37,1,.6,1.51A22,22,0,0,1,425.4,320c1.06,4.08,1.84,8.23,2.94,12.29.23.87,1.37,1.49,2.09,2.22.67-.75,2-1.56,1.91-2.24-.69-7.59,1.27-15.56-3.11-22.67a4.94,4.94,0,0,1-.49-3.3c.41-2.06-.16-3.11-2.13-3.92-3.1-1.27-4.57-3.63-3.93-7.14a8.91,8.91,0,0,0-.13-3.41c-.91-4.29-4-6.35-7.68-4.93L409,278.27c5.24-3.06,7.78-2.61,11,1.63.82,1.1,1.45,2.48,2.51,3.23A21.76,21.76,0,0,0,427,285Zm-36,1.11c-4.23-.78-7.43-2.73-9.48-6.82s-4.72-7.69-7.12-11.51c-.3-.48-.88-1-.83-1.43.43-3.38-1.47-4.44-4.37-4.78a3.34,3.34,0,0,1-2-1.16c-3-3.74-7.4-4.85-11.47-6.61-1.75-.76-2.58-.13-3.4,1.59a10.46,10.46,0,0,1-3.5,4.33,47.06,47.06,0,0,1-10.35,5.35c-10.44,3.38-21,6.37-31.58,9.35a10.66,10.66,0,0,1-5.11-.09,7.73,7.73,0,0,0-7.3,1.89c-3.92,3.29-3.94,3.27-8.05-.46a47.31,47.31,0,0,1-3.12,5.06,19.08,19.08,0,0,1-4.41,4.29c-3.18,2-6.6,3.59-9.94,5.32a10.26,10.26,0,0,1-3.11,1.32,10.91,10.91,0,0,0-9.14,6.38c-.91,1.89-2.42,2.94-4.47,1.93-4.48-2.21-7.38.05-10.1,3.22a28.19,28.19,0,0,1-2.37,2.26l-.58-.55,2.12-4.9c-1.24.07-2.05-.13-2.46.18a14.24,14.24,0,0,1-9.65,2.82c-2.26-.07-3.69,1.4-4,3.82,3.51,1,6.9,1.88,10.13,3.11.85.32,1.3,1.82,1.81,2.84a22,22,0,0,1,.92,2.59,12.78,12.78,0,0,0,2-2.2c1.33-2.37,2.45-4.86,3.8-7.23.23-.41,1.14-.52,1.75-.58.16,0,.53.7.55,1.08a87,87,0,0,1,.2,9.68,4.85,4.85,0,0,1-2.1,3.59,5.23,5.23,0,0,0-3.31,4.72,54.33,54.33,0,0,1-1.37,7.06c-1.45,5.53-3.28,11-4.48,16.54-.71,3.31-2.07,5.45-5.43,6.22a8.88,8.88,0,0,0-2.17,1.27l3.09,1.37-3.72,2,3.41,2.14a16,16,0,0,0-.55,3.54c.24,3.8.25,7.39-1.93,10.91-1.09,1.77-1.21,4.37,1.89,5.62a4.28,4.28,0,0,1,2,3.41c-1,12.67,5.2,22.6,12,32.34a52.48,52.48,0,0,0,4.41,5.26c2.89,3.19,6.46,4.81,10.78,4,12-2.37,24.1-4.5,36-7.36A328.35,328.35,0,0,0,354.28,398a12.58,12.58,0,0,1,2.63-.6l.29.8c-3.38,2.15-6.61,4.62-10.19,6.4-9.3,4.64-18.78,8.91-28.13,13.44-4.4,2.13-8.64,4.6-13,6.74-2.32,1.13-5,2.91-7.22,2.61-7-.93-9.11,5.37-13.84,7.86a8.76,8.76,0,0,0,3.4,1.28c5.28,1,11-.8,15.95,2.5.65.43,2-.12,3-.31,6.28-1.22,12.72-1.91,18.77-3.83,6.58-2.1,12.79-5.33,19.15-8.1,2.34-1,4.53-2.67,7-3.16,6.14-1.25,10.5-5,15.16-9.32l-5.23-2c2.33-2.31,4.05-4.37,6.16-5.87.65-.46,2.38.7,3.65.95a3.56,3.56,0,0,0,2.32-.13,66.07,66.07,0,0,0,7.66-5.47c2.73-2.39,4.93-5.4,7.73-7.69,3.36-2.74,3.71-4.7,1.26-8.45-.77-1.17-1.22-3.48-.58-4.46,2.56-3.89,5.61-7.46,8.66-11.38-.2-.89-.85-2.27-.66-3.53.14-1,1.34-1.78,2.07-2.66.51.82,1,1.64,1.51,2.47s.75,1.41,1.12,2.12c.55-.75,1.56-1.49,1.56-2.23a58.42,58.42,0,0,0-.61-9.55,20.52,20.52,0,0,1,1.12-12.08,9.8,9.8,0,0,0,.26-6.9,21,21,0,0,1-1.25-14.05,4.81,4.81,0,0,0-1.79-4.08c-1.62-1.09-1.8-2-1.86-3.84-.07-2.22-.52-5.23-2-6.45-3.59-3-4.4-6.25-3-10.31a40.15,40.15,0,0,1,2.84-6.14c1.11-2.06,2.1-4,.49-6.27a6.94,6.94,0,0,1-1.15.17c-1.15-.05-2.3-.13-3.44-.2.13-1.1.29-2.19.38-3.29a6,6,0,0,0,0-2.52c-1.3-3.23-1.25-3.28,2.12-3.08a3,3,0,0,0,2.42-1.13c.31-.59-.41-1.68-.6-2.56a18.66,18.66,0,0,1-.51-3.38,7.33,7.33,0,0,1,.68-2.14c-4.43-.17-5,.65-5.47,7.69-2.92-.52-3.77-1.27-4-4.44-.33-5.95-3-9.95-8.87-11.63a3.57,3.57,0,0,1-2.93-4,17,17,0,0,0-.23-2.55c-2,.21-3.69.29-5.35.58a39.49,39.49,0,0,0-3.93,1.08c.77,1.38,1.27,3,2.37,4.07,2.31,2.16,4.92,4,7.44,5.93.74.57,1.55,1,2.61,1.74l1.14-4.65c1.86,2.7,5.4,3.55,2.91,7.42-.37.56.43,2.31,1.15,3.07a16.67,16.67,0,0,1,4.68,10.44,18.56,18.56,0,0,0,.85,3.21ZM408.87,251l1.22-1.14a57.88,57.88,0,0,0-3-5c-7.55-10.25-17.37-18.05-28.42-23.94-6.67-3.56-14.37-5.15-21.53-7.8-22.4-8.31-45-10.37-67.89-2.24-6.13,2.17-12.19,4.56-18.26,6.91-2.45,1-2.18,2.13-.29,3.65,2.38,1.89,3.79.68,5.52-1,.92-.91,2.52-1.14,3.81-1.68.18,1.09.37,2.19.63,3.74,1.18-.11,2.9.22,4-.46,3.14-2,6.45-1.69,9.89-1.91,3-.19,6.11-1.65,8.9-3.08.81-.41.79-2.61,1-4,.44-3,1.77-4.82,5.1-4.59,6.37.45,12.75.82,19.12,1.31a6.47,6.47,0,0,1,2.87,1,2.74,2.74,0,0,1,1.08,1.88c0,.37-.9.93-1.49,1.15-2,.76-4.11,1.35-6.14,2.11-1.82.68-2.49,0-2.71-1.81a16.9,16.9,0,0,0-.95-3.09l-.81-.22c-.53,3.78-2.93,3.53-5.55,3.35-1.13-.08-2.32.75-3.48,1.16l.08,1.31c4.85.66,9.69,1.51,14.57,1.91,2.79.22,8.48.89,10.73,2.19a16.62,16.62,0,0,1,2.65,2.4c-1.15.79-2.24,1.68-3.46,2.35-1,.57-3,.67-3.16,1.35-.59,2.17-2,1.88-3.48,1.76-4.45-.36-8.89-.86-13.34-1.18a24.22,24.22,0,0,0-4.13.38l0,.94c3.71.41,7.4.94,11.11,1.22,4.77.37,9.55.68,14.33.76,3,0,6-.4,9.68-.66l-4.58-5.15.29-1,16.94.8-.08-.73-5.81-3.14.69-1.5A33.65,33.65,0,0,1,358.4,221c1.07.63,1.89,2.1,3,2.25,5.75.82,10,4.35,14.46,7.54,1.68,1.21,3.1,2.76,5.27.57.47-.48,2.17-.09,3.11.32a44.13,44.13,0,0,1,4.45,2.6c2,1.17,4.6,1.89,3.58,5.23-.13.45.69,1.39,1.27,1.81,2.25,1.65,4.53,3.26,6.9,4.73C403.16,247.78,406,249.33,408.87,251ZM182,414.74c-1.22,5.59-.08,7.18,2.59,10.84,2.86,3.93,4.65,8.63,7.06,12.91a22.84,22.84,0,0,0,4,5.62c3.09,2.86,6.49,5.38,9.82,8a15.71,15.71,0,0,0,3.21,1.84c3.18,1.41,6.4,2.73,9.61,4.09l10.7,4.51.82-1.28c-.89-1.08-1.76-2.18-2.68-3.23-1.42-1.63-3.31-3-4.22-4.89-2-4.06-5.12-6.23-9.27-7.54-1.4-.44-3.26-1.43-3.68-2.61-1.36-3.78-4.22-5.49-7.58-6.93a12.22,12.22,0,0,1-4.39-2.6c-4.55-5.11-8.87-10.42-13.28-15.65C183.85,416.76,182.94,415.75,182,414.74Zm87.17-161.45a84.62,84.62,0,0,0,9.64-.64c2.76-.47,2.72-3.15,2.62-5.29,0-.82-1.18-2.26-1.83-2.27-4.75-.07-9.44-.81-14.21,1.07C252,251.43,242.27,261,233.51,271.94a17.71,17.71,0,0,0-1.63,3l14-5.65a1.52,1.52,0,0,0,.53-.42c5-5.35,11.82-7.69,18-11.09C266.3,256.71,267.66,254.77,269.21,253.29Zm-36.65,61.82c-3.44-3.1-6.65-6.1-10-8.89-.36-.3-2.09.32-2.52,1-1.36,2-2.4,4.25-3.64,6.55,1.56,1.09,2.79,1.59,3.69-1,.42-1.2,1.67-2.11,2.21-2.76,2.23,3.24,4.05,5.9,5.88,8.57ZM421.22,439l1,.79c4-3.45,8.23-6.76,12.11-10.39,3.2-3,2.71-5.86-1.6-9.08,1.28,6.19-1.86,9.18-6.72,11.45C423.19,433.12,421.91,436.07,421.22,439Zm-178.4,50.55c3,1.75,10.49,3.12,13,2.33.68-.21,1.75-.87,1.73-1.27a2.85,2.85,0,0,0-1.24-2.09,56.05,56.05,0,0,0-6.62-2.83,2.85,2.85,0,0,0-2.22.22C245.92,487,244.52,488.23,242.82,489.58ZM229.91,222c-3.12.69-5.93,1.15-8.62,2-.79.26-1.23,1.65-1.82,2.52a15.52,15.52,0,0,0,2.85.92,21.72,21.72,0,0,0,5.68.22,10.25,10.25,0,0,0,4.07-2.05,2.17,2.17,0,0,0,.42-2.08A9.64,9.64,0,0,0,229.91,222ZM391.75,408.17c-2.95.6-5.38,1-7.73,1.64a5,5,0,0,0-2.19,1.87c-.16.21.72,1.57.79,1.54q4.75-1.82,9.42-3.87A5.49,5.49,0,0,0,391.75,408.17Zm-236.1-10-1.23.78c1.29,2.5,2.51,5,3.93,7.47.3.5,1.31.62,2,.77.1,0,.69-1.08.53-1.33C159.21,403.26,157.42,400.72,155.65,398.17Zm15.58-97.33,1.45.4,1.77-5.06c-.93-.07-2.13-.53-2.74-.13C169.72,297.38,169.81,299.13,171.23,300.84Zm240.52,152.6c-1.58,2.76-.67,4.13,1.22,4.76.5.16,1.36-.76,2.06-1.19ZM164.34,315.54l-2.2-.8a37.56,37.56,0,0,0-1.3,4,15.72,15.72,0,0,0,2.19.82Zm15.32,33.69-1,0V357h1Z" transform="translate(-120.79 -196.09)"/><path d="M153.16,300.65c-.11,1.68.33,3.69-.44,5a49.11,49.11,0,0,0-6.58,18.61,5.13,5.13,0,0,1-.65,2.3,34.26,34.26,0,0,1-2.83,3.2c-.68-1.27-2-2.62-1.92-3.82.38-3.71.78-7.59,2.19-11,1.91-4.61,4.75-8.84,7.26-13.2.35-.6,1.14-1,1.72-1.44Z" transform="translate(-120.79 -196.09)"/><path d="M146.67,410.1c3.57-.52,4.52,1.74,5.68,3.59,2.17,3.45,4.15,7,6.46,10.38.93,1.35,2.7,2.1,3.74,3.4a11.24,11.24,0,0,1,2.08,4.23c.15.61-.75,1.86-1.47,2.2A2.45,2.45,0,0,1,161,433c-3.09-6.32-9.31-10.75-10.85-18.06C149.77,413.31,148.09,412,146.67,410.1Z" transform="translate(-120.79 -196.09)"/><path d="M141.58,345c1,2.66,1.95,4.94,2.64,7.29.13.42-.72,1.22-1.26,1.69a2,2,0,0,1-1.23-.83c-1.11-3.09-2.54-6.16-3-9.36-.31-2.07.59-4.45,1.43-6.49.33-.81,2-1.08,3-1.6.44.94,1.35,1.95,1.22,2.8C144,341,145,344.34,141.58,345Z" transform="translate(-120.79 -196.09)"/><path d="M129.51,302.37c-1-6.18,3.36-12.63,10.88-15.36-1.3,2.77-2,5-3.26,6.79a91.82,91.82,0,0,1-6,7.2A15.87,15.87,0,0,1,129.51,302.37Z" transform="translate(-120.79 -196.09)"/><path d="M128.65,304.49c1.1,6.42-1.76,11.14-5.06,15.94C121.6,315.51,124.27,306.88,128.65,304.49Z" transform="translate(-120.79 -196.09)"/><path d="M131.33,374.07c-5.53-.91-6.87-3.05-6-9.46a19.16,19.16,0,0,1,1.31,2.66c.6,2,.45,4.45,3.59,4.48C130.53,371.76,130.85,373.06,131.33,374.07Z" transform="translate(-120.79 -196.09)"/><path d="M151.16,278.65c-1.49,1.42-2.71,1.45-3.7-.58-1.13-2.29-.78-3.2,2-4.8.55,1.81,1.1,3.65,1.66,5.49Z" transform="translate(-120.79 -196.09)"/><path d="M372.09,205c2.78-1,4.5.37,5.94,2.23.16.21-.66,1.68-1,1.66C374.67,208.71,372.76,207.74,372.09,205Z" transform="translate(-120.79 -196.09)"/><path d="M433.66,441.87c-.5,2.32-1,4.49-4.24,3.72C429.67,441.93,430.51,441.19,433.66,441.87Z" transform="translate(-120.79 -196.09)"/><path d="M122.86,329.12v6.75C120.09,333.1,120.12,332.15,122.86,329.12Z" transform="translate(-120.79 -196.09)"/><path d="M179.66,349.23V357h-1v-7.73Z" transform="translate(-120.79 -196.09)"/><path class="cls-1" d="M272.58,369.16,270.07,371c-3.17-3.41-3.39-7.37-2.14-11.27s.86-7-1.79-10.2c-1.13-1.36-1.49-3.51-1.79-5.37-.57-3.55-1.76-4.71-5.28-4-2.78.59-4.14,0-4.11-3.08a8.26,8.26,0,0,0-1.25-3.83c-1.49-2.67-1.1-5.11,1.31-6.65a62.1,62.1,0,0,1,11.07-5.94c5.27-2,10.49-4.6,16.48-4.09.89.07,2.11-.91,2.78-1.73a18.27,18.27,0,0,1,11.17-6.25c10.68-2,21.44-3.57,32.12-5.57a26.53,26.53,0,0,0,7.9-3.05c2.72-1.53,5.1-1.52,7.34.77,2.07,2.12,4.18,4.22,6.28,6.33,1.42,1.43,3.31,2.59,1.76,5.21-.27.46.85,2.21,1.72,2.79a5.9,5.9,0,0,1,2.71,7.09c-.27,1.06-.47,2.51,0,3.32,3,4.82,1.88,9.78.57,14.65a16.82,16.82,0,0,0,.56,11.07,27,27,0,0,1,1,5c.54,2.84.6,5.89,1.72,8.48,2.95,6.83-.69,15-8.07,16.6-20.49,4.52-40.08,12.06-60.18,17.89a40.29,40.29,0,0,0-5.92,2.7c-2.62,1.26-5,.87-6.79-1.37a31.25,31.25,0,0,1-4.21-6.18c-1.18-2.5-1-4.89,2.2-6.17.76-.3,1.12-1.61,1.66-2.45a18.92,18.92,0,0,1-2.82-.06c-1.08-.17-2.83-.3-3.06-.91a63,63,0,0,1-2.67-9.37c-.12-.56,1.22-1.34,1.72-2.13.69-1.1,1.22-2.29,1.82-3.44Zm30.56-46.6c1.49.08,3,.56,4.28.17A100.82,100.82,0,0,0,320.1,318a3.48,3.48,0,0,0,1.25-5.34c-1.65-2-3.33-.29-4.58,1-1.58,1.66-3.16,1.72-5.25.95-2.56-.95-5-.37-6.47,2.17C304.22,318.34,303.92,320.14,303.14,322.56ZM325.88,325l2.59-2.57c-1.09-.7-2.17-1.92-3.28-1.95s-2.3,1.11-3.46,1.74Zm-28.42,11.37.4,1.78,6.77-1.45-.35-1.67Z" transform="translate(-120.79 -196.09)"/><path d="M390.93,286.14c1,1.61,2.3,3.12,2.9,4.87.33.95-.53,2.31-.86,3.48-1.05-.67-3-1.31-3-2a30.05,30.05,0,0,1,1-6.35Z" transform="translate(-120.79 -196.09)"/><path class="cls-1" d="M297.46,336.32l6.82-1.34.35,1.67-6.77,1.45Z" transform="translate(-120.79 -196.09)"/><path d="M626.64,371.12c0,1.93-.17,3.86-.35,5.79A86,86,0,0,1,620,398.67a13.28,13.28,0,0,1-3.16,4.39c-1.4,1.58-2.8,2.8-3.5,4.73-1.23,3.16-4.39,4.57-7,6.32a115.19,115.19,0,0,1-11.24,6.32,17.67,17.67,0,0,1-5.09,1.76,97.14,97.14,0,0,1-17.19,1.75A68.26,68.26,0,0,1,555,421.66a33.59,33.59,0,0,1-19.3-14.22,8.39,8.39,0,0,1-1.76-4.91,8,8,0,0,1,2.11-5.09,1.52,1.52,0,0,1,1-.53,1,1,0,0,1,.7.18,21.27,21.27,0,0,0,2.81.7,2.51,2.51,0,0,0,1.76-.7,1,1,0,0,1-.53-.7c0-.18,0-.18.18-.35.7-.71,1.75,0,2.45-1.06.53-1.05.53-3,1.93-3h.18c.53,0,.88.18,1.4.18.7,0,1.41-.18,1.93-.18a5.66,5.66,0,0,1,3.34.88c.87.52,1.93,1.23,2.81,1.75a30.29,30.29,0,0,0,17,6c2.45.17,4.91.53,7.37.53a33.22,33.22,0,0,0,4.21-.36,18.94,18.94,0,0,0,8.07-3.15c8.25-6,12.11-14.39,14.22-24.05v-.7c-.18-5.09-.35-7.72-3.51-7.72a17.4,17.4,0,0,0-5.09,1.05,101.87,101.87,0,0,1-16.15,4.92,83.57,83.57,0,0,1-13.16,1.23,49.62,49.62,0,0,1-14.21-1.93c-4.74-1.41-9.3-3.16-13-6.67a10.56,10.56,0,0,1-3.33-6.15c-.53-2.63-1.93-5.26-2.81-8.07a25.34,25.34,0,0,1-.88-7.19,34.47,34.47,0,0,1,2.46-12.64c6.84-17,16.67-31.94,31.59-43.17,8.24-6.14,17.19-9.83,27.55-9.83h1.4c10.88.35,18.08,5.79,22.64,15.27,2.28,5.09,2.81,10.53,3.51,16a7.37,7.37,0,0,1-.88,3.86,40.67,40.67,0,0,0-4.21,8.25,2.14,2.14,0,0,1-2.11,1.58c-.87,0-1.93-.35-2.8-.35h-.35l.17.17h-1.58v-.17c-2.1,0-3.68,0-3.86-3.16,0-1.93-.7-4.92-3.51-5.09-2.81-.35-4.39-1.58-4.74-4.39a13.57,13.57,0,0,0-3.33-6.49c-1-1.23-1.76-1.76-2.81-1.76a8.79,8.79,0,0,0-1.93.36,24.58,24.58,0,0,0-10.53,7.19c-6.14,6.67-12.28,13.51-15.79,21.94-3.69,4.38-4.74,9.65-6,14.91a6.48,6.48,0,0,0-.18,1.76c0,2.45,1.58,4.21,4.39,4.74a27.36,27.36,0,0,0,5.44.52,28.56,28.56,0,0,0,5.44-.52c4.21-.88,8.43-1.93,12.46-3a48.5,48.5,0,0,1,14.22-2.45,19.76,19.76,0,0,1,3.16.17c3.68.53,7.37.88,9.82,4.21a4.42,4.42,0,0,0,2.11,1.58c2.46.88,4.56,1.93,4.56,4.74v.88c0,.35.53.88.7,1.23C625.59,362.34,626.64,366.55,626.64,371.12Zm-16.49-17.2a1,1,0,0,0-.18-.7,3.92,3.92,0,0,0-2.46-1.06H607c-.18,0-.53.53-.7.88v.18c0,.17,0,.35.17.35,1,.17,2.11.52,3.16.7C609.8,354.27,610,354.09,610.15,353.92Zm3.51-32.47c-.35.53-.53.88-.71.88s-.35-.35-.52-.88Zm5.26,52.83c0-2.29.18-4.39.18-6.67a19.72,19.72,0,0,0-3.34-11.94,6.23,6.23,0,0,0-.88,3.16c0,.88.18,1.58.18,2.28.7,2.64,1.58,5.27,2.46,7.73.7,2.28-.35,4.91,1.4,7.37Zm-1.4,6.31-.35-.17v.35Z" transform="translate(-120.79 -196.09)"/><path d="M741.76,354.09a6.56,6.56,0,0,1,.53,1.76,1.33,1.33,0,0,1-.7,1.23c-1.06.7-2.46,1.23-3.51,1.93a1.59,1.59,0,0,0-.7,1.4c0,.18,0,.35.17.35,2.46.53,1.05,3.86,3.51,4.21a1.18,1.18,0,0,1,.7.88.69.69,0,0,1-.35.7c-1.75,1.06-1.93,3.51-4.39,3.87a20.77,20.77,0,0,0-3,1.22c-2.46.88-6,.71-7,3.34a2.28,2.28,0,0,0-.17,1c0,1.93,1.58,3.86,1.93,6q3.68,14.21,6.84,28.43c.53,2.28.7,4.91,1,7.37v.7c0,1.23-.87,1.58-2.28,1.75-1.23.18-1.58,1.41-2.63,2.29-1-2.11-2.11-4.22-3.33-6.32-.18,0-.36.17-.53.17h-.7c0,.18.17.35.35.53a4.34,4.34,0,0,1,.88-.7,14.75,14.75,0,0,0-1.58,5.44.78.78,0,0,1-.53-.18h.18a.53.53,0,0,0,.35.18c0-.18,0-.18-.18-.18,0,0-.17,0-.17.35.87.18,1.22.53,1.22.88a2.42,2.42,0,0,1-.35,1.05c-.17.36-.35.53-.52.53-.53,0-.88-.53-1.23-.53a.59.59,0,0,0-.35.18,15.67,15.67,0,0,0-1.41,2.28.73.73,0,0,1-.52.18,1.72,1.72,0,0,1-.53-.18c-1.4-2.28-2.11-4.91-4.56-6.32-2.64-6.67-6-12.81-8.08-19.83-1.75-6-3.86-11.93-5.79-17.9a2.39,2.39,0,0,0-2.28-1.93c-.35,0-.52.18-.88.18-3.68,1.05-7.37,2.1-11.05,3.33-4,1.23-8.07,2.63-12.11,4a11.26,11.26,0,0,1-4,.88,4.59,4.59,0,0,1-4.21-2.29,8.76,8.76,0,0,1-2.1-5.79,11.89,11.89,0,0,1,.17-2.45c0-.35-.7-1.06-1.23-1.41a.64.64,0,0,0-.52-.17,1.31,1.31,0,0,0-1.23.87,14.22,14.22,0,0,0-1.23,2.29,46.94,46.94,0,0,0-2.46,6.31c-1.23,4.39-3.68,8.25-5.61,12.46-2.64,5.44-5.27,10.88-6,16.85-.18,2.28-1.4,3.69-2.63,5.27a35.25,35.25,0,0,1-3.86,4.73c-.18.18-.7.18-1.23.18H640.5c-1-.18-1.22-1.23-1.22-2.11a39.11,39.11,0,0,1,2.8-11.05c.71-1.23,1.93-2.11,2.29-3.34a47.27,47.27,0,0,0,.87-7.37,1.94,1.94,0,0,0-.87-.17c-1.23,0-.88,1.75-1.76,2.28-1.23.7-2.81,1.23-2.81,2.46a2.93,2.93,0,0,0,1.06,2.1v.35a21.43,21.43,0,0,1-.71,2.81c-.52,1.93-1,4-1.58,5.79-.52,1.23-1.05,1.58-2.1,1.58-.53,0-1.05-.17-1.93-.17-1.76-.18-2.11-.71-2.11-1.94V416a29.1,29.1,0,0,1,1.58-6.49,12.2,12.2,0,0,0,.53-3.51,5.86,5.86,0,0,0-.18-1.76,5.27,5.27,0,0,1-.35-1.75,20.69,20.69,0,0,1,.53-3c4-16.32,8.6-32.64,14-48.79,2.28-6.32,3.68-13,5.61-19.48,4.39-15.44,9.13-30.89,13.69-46.33a31.78,31.78,0,0,1,4.21-8.42,6.4,6.4,0,0,1,2.64-2.11,1.06,1.06,0,0,1,.7-.17c.87,0,1.58.87,2.28,1.22a31.35,31.35,0,0,0,3.68,1.58l-.17-.17c1.23,1.05,2.63,1.93,3.86,3a3.88,3.88,0,0,0,2.28,1.05,2.76,2.76,0,0,0,1.4-.52,7.42,7.42,0,0,1,3.69-1.06c1.93,0,4,.53,6,.53h.87c1.58,0,2.11,1.58,2.46,2.81,1.93,5.62,3.86,11.23,5.44,16.85,4.21,16.32,8.07,32.46,12.11,48.78.7,2.81,1.23,3.51,3.69,3.51h.87a86.74,86.74,0,0,0,9.48-.87h1.4a9.15,9.15,0,0,1,7,3ZM638.4,409.9l.17.53.18-.53Zm7.9-12.63c0,.17,0,.35-.36.35h-.17a1.72,1.72,0,0,1-.18-.53c.18-.18.18-.35.35-.35s.18,0,.36.17a.57.57,0,0,0-.36-.17.63.63,0,0,1,.36-.18Zm49.84-41.6c-3.51-10.88-6.15-21.23-10.18-31.23a1.12,1.12,0,0,0-1.06-.88,1.36,1.36,0,0,0-.7.17c-3.68,9.83-7.54,20-11.23,30-.88,2.46-1.58,4.74-2.46,7v.53a.93.93,0,0,0,1.06,1h.35C679.81,360.24,687.54,358.13,696.14,355.67Zm-14.75-5.09v-.17c0-.18,0-.18-.17-.18a.56.56,0,0,0,.35-.17h.18c0,.17-.18.17-.53.35Zm54.58.36c-.35-.36-.7-.53-.7-.88v-.35a1.32,1.32,0,0,0,.18.52c.17.18.17.35.35.53Zm-.17-.53H736l-.17-.35.17.35Zm6-.35a.53.53,0,0,1,.18.35c0,.17,0,.17-.18.17a.64.64,0,0,1,.35-.17v-.35c-.17,0-.17,0-.35.17Z" transform="translate(-120.79 -196.09)"/><path d="M818.45,337.77c.88.35,1.4.88,2.28.88a1.63,1.63,0,0,0,.88-.17H822c.53,0,.88.52,1,1.4a9.86,9.86,0,0,1,.18,2.11c0,1.22-.53,1.4-2.28,1.57a13.55,13.55,0,0,0-7.2,3.16,4.71,4.71,0,0,0,2.11.53,7.7,7.7,0,0,0,1.93-.35h-.18a8.34,8.34,0,0,0,.53,1.23,3.8,3.8,0,0,1,.18,1.75c0,1.76-.18,4.21-.18,4.39,0,1.23-.7,1.4-1.58,1.75a157,157,0,0,1-27.9,7.9c-.7.18-1.41.18-2.11.35C782,365.5,782,365.5,782,370.06v19c0,6.31,0,12.63-.18,19-.17,4.74-.35,9.48-1.58,14a8.59,8.59,0,0,1-2.28,3.16h-.17a2.32,2.32,0,0,1-2.28-1.58c-.71-2.28-1.23-4.39-1.76-6.67-.35-1.05-.35-2.28-1.75-2.63a3.25,3.25,0,0,0-.88,2.45c0,.71.17,1.41.17,2.11a2.28,2.28,0,0,1-.17,1,1.46,1.46,0,0,1-1.05.71c-.36,0-.36.17-.36.17v-.7c-.35-.7-.52-1.23-.87-1.23s-.53.35-.88,1c-.7,1.41.17,3.34-1.4,4.39-4.74-3.33-5.27-8.6-6-13.69a169.53,169.53,0,0,1-1.76-19c0-7-.52-14-1-21.06a3.14,3.14,0,0,0-2.11-3c-2.28-.7-4-2.28-4-4.92v-1.58c0-2.45.17-5.26,3.16-6.66.52-.36,1.23-1.06,1.23-1.41v-1.23c0-3,1.58-5.61,1.58-8.77V310.57a4.19,4.19,0,0,0-.71-2.81h-7.37c-2.63-.17-3.86-1.57-4.21-4.38-.17-1.58-.17-3.16-.35-4.74,0-.7.35-1.41.35-2.11a.64.64,0,0,0-.17-.52,4.76,4.76,0,0,1-1.06-3.34c0-2.1.88-4.21,1.06-6.32.17-1.57,1.22-2.28,2.8-2.45,6.67-1.06,13.34-1.93,20-3,7.72-1.05,15.27-2.28,22.81-3.15a195.27,195.27,0,0,1,26.68-2.29h1.75a43.34,43.34,0,0,1,4.92.18c2.63.18,5.26.7,7,3.16.52.7,2.1.35,2.1,1.23v.52c-.35,1.41-1.75.88-2.81,1.41-1.93.87-4.38,1-6,3l-.18-.17c.7.35,1.76.52,1.76.7v.35c0,2.28,1.4,3,3.16,3.86a.55.55,0,0,1,.52.53,1.5,1.5,0,0,1-.52,1c-1.23,1.05-3.69.35-3.69,2.81l-5.26,1.58a44.47,44.47,0,0,1-5.09,1.4c-8.78,1.4-17.38,2.81-26.15,4.39-1.93.35-3.86.87-5.79,1.4a31.56,31.56,0,0,0-.7,7v9.3c-.36,5.27-.36,10.71-.36,16.15,0,2.63.18,3.33,1.76,3.33.53,0,1-.17,1.75-.17l20.19-1.58a19.57,19.57,0,0,1,3.33-.18,35.07,35.07,0,0,1,9.48,1.23ZM773.7,275.65a.18.18,0,0,0,.18.18Zm4.21,74.76h.18v-.18Zm42.65-.18a1.56,1.56,0,0,1-.88.18c-.53,0-1-.18-1.58-.18Zm-1.93.53a3,3,0,0,1,.7-.88c0,.18.17.53.17.7h-1Z" transform="translate(-120.79 -196.09)"/><path d="M912.16,337.77c.88.35,1.41.88,2.29.88a1.6,1.6,0,0,0,.87-.17h.35c.53,0,.88.52,1.06,1.4a10.42,10.42,0,0,1,.17,2.11c0,1.22-.52,1.4-2.28,1.57a13.49,13.49,0,0,0-7.19,3.16,4.67,4.67,0,0,0,2.1.53,7.7,7.7,0,0,0,1.93-.35h-.17a8.42,8.42,0,0,0,.52,1.23,3.8,3.8,0,0,1,.18,1.75c0,1.76-.18,4.21-.18,4.39,0,1.23-.7,1.4-1.58,1.75-9.12,3.34-18.42,6.32-27.9,7.9-.7.18-1.4.18-2.1.35-4.57,1.23-4.57,1.23-4.57,5.79v19c0,6.31,0,12.63-.17,19-.18,4.74-.35,9.48-1.58,14a8.82,8.82,0,0,1-2.28,3.16h-.18a2.32,2.32,0,0,1-2.28-1.58c-.7-2.28-1.23-4.39-1.76-6.67-.35-1.05-.35-2.28-1.75-2.63a3.29,3.29,0,0,0-.88,2.45c0,.71.18,1.41.18,2.11a2.16,2.16,0,0,1-.18,1,1.44,1.44,0,0,1-1,.71c-.35,0-.35.17-.35.17v-.7c-.35-.7-.53-1.23-.88-1.23s-.53.35-.88,1c-.7,1.41.18,3.34-1.4,4.39-4.74-3.33-5.27-8.6-6-13.69a167.19,167.19,0,0,1-1.75-19c0-7-.53-14-1.06-21.06a3.15,3.15,0,0,0-2.1-3c-2.28-.7-4-2.28-4-4.92v-1.58c0-2.45.18-5.26,3.16-6.66.53-.36,1.23-1.06,1.23-1.41v-1.23c0-3,1.58-5.61,1.58-8.77V310.57a4.24,4.24,0,0,0-.7-2.81H843.2c-2.64-.17-3.86-1.57-4.22-4.38-.17-1.58-.17-3.16-.35-4.74,0-.7.35-1.41.35-2.11a.64.64,0,0,0-.17-.52,4.75,4.75,0,0,1-1-3.34c0-2.1.87-4.21,1-6.32.17-1.57,1.23-2.28,2.81-2.45,6.67-1.06,13.33-1.93,20-3,7.72-1.05,15.27-2.28,22.82-3.15a195.12,195.12,0,0,1,26.67-2.29h1.76a43.25,43.25,0,0,1,4.91.18c2.63.18,5.26.7,7,3.16.53.7,2.11.35,2.11,1.23v.52c-.36,1.41-1.76.88-2.81,1.41-1.93.87-4.39,1-6,3l-.17-.17c.7.35,1.75.52,1.75.7v.35c0,2.28,1.4,3,3.16,3.86a.56.56,0,0,1,.53.53,1.52,1.52,0,0,1-.53,1c-1.23,1.05-3.69.35-3.69,2.81l-5.26,1.58a44.47,44.47,0,0,1-5.09,1.4c-8.77,1.4-17.37,2.81-26.15,4.39-1.93.35-3.86.87-5.79,1.4a31.56,31.56,0,0,0-.7,7v9.3c-.35,5.27-.35,10.71-.35,16.15,0,2.63.17,3.33,1.75,3.33.53,0,1.06-.17,1.76-.17l20.18-1.58a19.57,19.57,0,0,1,3.33-.18,35.07,35.07,0,0,1,9.48,1.23Zm-44.75-62.12a.18.18,0,0,0,.18.18Zm4.22,74.76h.17v-.18Zm42.64-.18a1.56,1.56,0,0,1-.88.18c-.52,0-1-.18-1.58-.18Zm-1.93.53a3.18,3.18,0,0,1,.7-.88c0,.18.18.53.18.7h-1.06Z" transform="translate(-120.79 -196.09)"/><path d="M1020.09,298.64a1.91,1.91,0,0,0,.35,1.23c1.93,2.81,2.11,6,2.11,9.12v52.3c0,6.67-1.76,13-3.16,19.3v.71c0,1.58.7,2.63,2.11,2.63h.52c.7,0,1.41-.53,1.93-.53a6.8,6.8,0,0,1,1.76-.17c1.23,0,1.93.35,2.1,1.4a2.16,2.16,0,0,1,.18,1.05,3.35,3.35,0,0,1-2.63,3.34c-2.11.7-4.22,1.23-6.32,1.75-1.23.35-2.63.7-3.34,1.93a2.63,2.63,0,0,0,1.93.7c.71,0,1.58-.17,2.29-.17h.35c.7,0,1.4.17,1.4.88v.17c-.17.35-.88.7-1.4,1.23a4,4,0,0,0,1.93.53c.87,0,1.93-.18,2.8-.18a3.66,3.66,0,0,1,2.29.53c-.18.35-.18.88-.53,1.05-1.93,1.4-5.26.53-5.79,4-.18.35-1.23.7-1.76.87-21.05,6.5-41.59,13.87-63,18.78-3.33.7-6.67,1.41-10,1.93a4.75,4.75,0,0,1-1.58.18c-1.75,0-2.63-.88-3.16-3.34-.53-2.1-1.58-4.21-1.58-6.49a3.73,3.73,0,0,1,.18-1.4,5.74,5.74,0,0,0-.35-1.41c-.71-1.23-1.76-6.49-1.76-7.89v-.18c0-.53.35-1.23.35-1.93,0-1.58,2.63-1.76,2.63-3.33a2.79,2.79,0,0,0-.52-1.41,1.89,1.89,0,0,1-.35-1.4c0-1.23.7-2.46.7-3.69,0-1.75-.7-3.68-1-5.61-1.93-9.13-1.93-18.43-2.81-27.56-1.23-13.86-.88-27.72-2.28-41.41-.18-2.11-.35-4.39-.35-6.5a17.53,17.53,0,0,1,.17-3,5.79,5.79,0,0,0,.18-1.75c0-3.86-1.76-7.2-2.11-10.88a8.08,8.08,0,0,0-1.4-2.29,2.11,2.11,0,0,1-.7-1.57,3,3,0,0,1,1.05-1.93,12.47,12.47,0,0,1,7.9-3.51c7.37-.53,14.91-.88,22.28-1.23,12.81-.53,25.27-2.46,37.91-3.86,8.6-1.06,17-2.29,25.62-2.29,2.11,0,3.69.53,4.56,2.11a1.91,1.91,0,0,1,.53,1.23c0,.35-.18.7-.88,1.05-3,1.41-6,3-9.47,4.74a6.06,6.06,0,0,0,2.28.53c1.23,0,2.1-.35,3.16-.35h.17a.64.64,0,0,1,.7.7v.52a7.26,7.26,0,0,1-.17.88c0,1.05.7,1.23,1.58,1.23h3.16c-.53,2.63-3.69,1.93-4.22,3.69-.7,2.8-3.15,2.1-4.91,3C1020.62,297.23,1020.09,297.76,1020.09,298.64Zm-72.3,96.69-.53-1.05-.52.53V395c0,.35.17.53.52.71C947.44,395.69,947.61,395.51,947.79,395.33Zm2.28-.87c.18,0,.35-.53.53-.88a3.61,3.61,0,0,0-.71-1.05c-.17.35-.52.52-.7.87v.53a.47.47,0,0,0,.53.53Zm54.75-11.41a2.15,2.15,0,0,0-.7-1.4,8.26,8.26,0,0,1-2.45-5.8c-.88-7.54-2.29-14.74-2.29-22.28.18-14.74.18-29.48.18-44.23v-3a8.86,8.86,0,0,0-.53-3.68c-12.63,1.75-25.09,3.51-37.55,5.26a16.65,16.65,0,0,0-.88,5.79v1.93c.18,4,.53,8.07.53,11.94,0,2.45-.18,4.73-.35,7-.36,5.09-.53,10.36-.53,15.45,0,2.81,0,5.44.17,8.25.18,3.68.36,7.37.36,11.05q0,6.31-.53,12.64c-.18,2.45-.18,5.09-.18,7.54,0,1.58.53,2.46,1.76,2.46a3.37,3.37,0,0,0,1.23-.18c9.65-1.75,19.48-3.68,29.3-5.44,3.51-.7,7.2-1.05,10.71-1.75A1.88,1.88,0,0,0,1004.82,383.05ZM991.13,354.8a31.34,31.34,0,0,1-2.28,11.93,14.69,14.69,0,0,1-2.63,4.56,2.39,2.39,0,0,1-1.58.88c-.52,0-1-.35-1.75-1.05a24.4,24.4,0,0,1-1.58-2.28l-1.58-2.64c-.53,2.28-2.81.88-3.86,1.93-.53.53-.88,1.93-1.93,1.93a.67.67,0,0,1-.53-.17c-1.4-.88-3.33-1.58-3.51-3.86a13.48,13.48,0,0,0-.53-2.63c-1.75-8.25-1.4-16.5-1.93-23.17-.17-6.49-.35-11.23-.52-16a33.45,33.45,0,0,1,.35-4,1.42,1.42,0,0,1,1.4-1.57h.88c1.93,0,3.86-.53,5.79-.53a6.46,6.46,0,0,1,3.51.88,1.93,1.93,0,0,0,1,.35h.35a3.81,3.81,0,0,1,2.29-1.06c1.58,0,3,1.23,4.73,1.76,3.16.88,3.86,2.28,3.86,5.09Zm17.55,24.39a25.71,25.71,0,0,0-.35-3.51c-.17,2.28-.35,4.39-.52,6.67A5.42,5.42,0,0,0,1008.68,379.19Zm4.57-.88c-.18-.88-.35-2.63-.71-4.39a5.77,5.77,0,0,0-1-.7c-.17,0-.35.18-.52.18a22.78,22.78,0,0,0-.53,4.91,33,33,0,0,0,.35,4.21c0,.18.35.36.53.36a6.76,6.76,0,0,0,1-.53C1013.25,381.47,1013.25,380.24,1013.25,378.31Z" transform="translate(-120.79 -196.09)"/><path d="M1145.74,392c-3.68.88-7.55,1.4-10.88,3.33a4.5,4.5,0,0,0,2.81,1.23c1.75-.17,3.51-.35,5.79-.52-2.46,1.58-5.09,1.4-6.67,3.33a3.49,3.49,0,0,0,2.28.7h.88a9.09,9.09,0,0,1,2.28-.35,9.73,9.73,0,0,1,3,.53c.36.17.71.35.71.7v.18c0,.35-.35,1.05-.71,1.05a20.32,20.32,0,0,1-3.15.53c-.71.17-1.23.17-1.23.87v.18c.17.35,1.05.52,1.58.88a2.63,2.63,0,0,1-1.58.35,6.37,6.37,0,0,1-1.93-.18,6.19,6.19,0,0,1-1.76-.17,1.74,1.74,0,0,1-.52-.18.18.18,0,0,0-.18.18V405a1.7,1.7,0,0,0,.7-.18h1.76a3.6,3.6,0,0,1-1.41,1.41,17.75,17.75,0,0,0-10.88,7.19c-.7.88-1,1.4-1.58,1.4s-.87-.7-1.58-1.93c-.52-.87-.87-1.58-1.93-1.58H1121c-13.17,2.29-26.33,4-39.31,7.38-7.55,1.93-15.1,3.51-22.47,5.08a11.56,11.56,0,0,1-3.33.53h-.7c-4,0-6.5-2.63-6.5-6.84a6.23,6.23,0,0,1,.88-3.86,1.69,1.69,0,0,0,.35-1.23c0-.53,0-1.06-.35-1.23a5.4,5.4,0,0,1-1.58-4c0-1.93.7-3.86.88-5.79a3.3,3.3,0,0,1,1.75-2.63c1.76-1.05,2.46-2.11,2.46-3.69a13.23,13.23,0,0,0-.35-2.45,126.11,126.11,0,0,1-1.93-18.08c-.88-10-1.76-19.83-2.46-29.83-.52-7.9-.7-15.8-1.23-23.69-.35-4.92-.7-9.66-.7-14.57,0-1.4.18-3,.18-4.39v-2.28a16.44,16.44,0,0,0-.7-5.79,11.33,11.33,0,0,1-.18-2.46v-2.28c.53-5.44.88-6.32,5.44-6.32h1.58c.7,0,1.58-.17,2.28-.17a3.77,3.77,0,0,1,2.81,1.05,1.85,1.85,0,0,0,1,.35h.18a3.82,3.82,0,0,1,2.45-.87c1.94,0,3.69,1.4,5.62,1.58,3.16.35,4.21,1.93,4.56,4.73a97.62,97.62,0,0,1,1.41,15.8c0,1.75-.18,3.51-.18,5.09-.35,6.14-.35,12.28-.35,18.42V356c0,4.92,0,9.83-.17,14.92-.18,4.21-.71,8.43-1.06,12.81a27.09,27.09,0,0,0-.35,3.69,18.23,18.23,0,0,0,.88,5.26c3.33-.7,6.49-1.4,9.83-1.93,7.72-1.23,15.26-2.1,23-3.16,4.73-.52,4.91-.52,4.91-5.09-.18-4.56-.18-9.12-.35-13.68-.88-11.76-1-23.34-1-35.1,0-6.32.17-12.81.17-19.13,0-5.44,0-10.88.35-16.32v-1.23c0-2.63-.35-5.09-.52-7.55-.18-1.75-.36-3.51-.36-5.09a23.93,23.93,0,0,1,.53-5.09c.35-1.93,1.58-3.15,3.34-3.15.35,0,.7.17,1,.17a9.19,9.19,0,0,0,3,.35H1117c1.75,0,3.33,0,4.91,1.23a1.3,1.3,0,0,0,.88.18c.18,0,.35,0,.35-.18a4,4,0,0,1,2.81-1.23c1.93,0,3.69,1.41,5.44,1.76,2.46.52,3.69,2.45,3.69,5.09,0,3.16.17,6.49.17,9.65,0,2.46-.17,4.74-.35,7.19-.88,10.88-.88,21.76-1,32.65,0,16.14,0,32.29-.18,48.26v1.4c0,3,.7,2.63,3.86,3.51,2.81.88,5.79,1.05,8.25,2.81.88.35,1.93.52,1.93,1.58C1147.67,392,1146.62,391.82,1145.74,392Zm-81.43.88c0-.18-.17-.53-.17-.7a6.44,6.44,0,0,1-.18-1.93v-3.34c0-2.1-.35-4.39-.52-6.67,0-.17-.53-.52-.88-.7-.18.35-.7.53-.7.88-.18,2.81-.18,5.79-.18,8.77l-.18,2.11a8,8,0,0,0,1.23,4.39,31.53,31.53,0,0,1-2.28-2.64,2.32,2.32,0,0,0-.88-.52c-.35,0-.87.7-.87.87.17.71.35,1.58.7,1.76a19.33,19.33,0,0,0,3.33.53C1063.08,394.63,1064.31,394.11,1064.31,392.88Z" transform="translate(-120.79 -196.09)"/><path d="M1252.09,401c-2.11,0-4-.35-6.14-.35h-.88a.63.63,0,0,0-.18.53c0,1.05,1.93,1.22,1.93,2.45a2.68,2.68,0,0,1-.52,1.06.62.62,0,0,0-.18.52c0,1.06,2.11,1.76,2.63,3,0,.17.18.35.18.52,0,.7-1.23.35-1.58.88v.18h-.18a5.84,5.84,0,0,1-3.68,1.22,7.42,7.42,0,0,1-1.93-.17,66.9,66.9,0,0,1-23.87-8.95,118.84,118.84,0,0,1-23.34-19.48,19.92,19.92,0,0,0-1.75-1.93c-.35-.35-.88-.88-1.23-.88-.18,0-.35.18-.53.18-.88.17-.88.87-.88,1.58,0,6.84-.17,13.51-.17,20.35v3.86a45.75,45.75,0,0,1-.7,9.66c-.53,2.1-1.58,4-1.58,6.14a6.13,6.13,0,0,0,.52,2.45v.36c0,1.4-1.93,2.8-3.51,3H1184a3.29,3.29,0,0,1-3.16-2.28v-.7a.63.63,0,0,0-.18-.53c-.35-1.23-.7-1.76-1.23-1.76a6.52,6.52,0,0,0-1.58.36c-.7.35-1.4.35-1.93.7-.87.52-1.4,1.93-2.28,1.93-.17,0-.17-.18-.35-.18a11.86,11.86,0,0,1-3.51-3.68c-.7-1.41-.7-3-1-4.57-1.23-8.77-1.76-17.55-2.28-26.32-.18-3.69-.53-7.19-.7-10.88-1.06-18.43-1.93-37-3-55.46v-1.05a3,3,0,0,0-.7-2.28,21.23,21.23,0,0,1-4.91.7c-2.28,0-3.16-1.05-6.15-4.74a4.07,4.07,0,0,1-1.22-2.63,2.28,2.28,0,0,1,.17-1.05,5,5,0,0,0,.35-1.58,2.51,2.51,0,0,0-1-2.11c-3.33-1.93-1.93-5.61-3.16-8.42a2.9,2.9,0,0,1-.35-1.76,4.7,4.7,0,0,1,2.63-4c3.16-1.76,6.14-3.86,9.3-5.62,2.29-1.05,3.51-2.45,3.51-5.09v-.87c0-1.76.35-3.51.35-5.27,0-1.4.88-2.46,1.58-3.68a1.48,1.48,0,0,1,1.23-.71.64.64,0,0,1,.53.18c3.16,2.46,7.72-.35,10.7,3h.53a9.74,9.74,0,0,1,3-.52c2.46,0,4.74.87,7.2,1.4a11.33,11.33,0,0,0,2.46.18,9.1,9.1,0,0,0,2.28-.18c5.79-1.58,11.75-1.58,17.55-1.93a38.63,38.63,0,0,1,4.56-.18,99.67,99.67,0,0,1,17.72,1.76c2.28.35,4.22,1.4,6.32,2.1.7.36,1.41.71,1.41,1.41s-.36,1.93-.36,2.63a.64.64,0,0,0,.18.53,3.18,3.18,0,0,1,1.93,2.28v.53c0,1.22-.53,2.1-1.58,2.1-.17,0-.35-.17-.7-.17-.53-.18-1.23-.35-1.93-.53a.64.64,0,0,0-.53-.18c-.17,0-.35.18-.52.53,0,.18-.18.35-.18.53s.18.35.7.52c1.05.18,1.23.71,1.23,1.41,0,.52-.18,1.05-.18,1.4v.35h.71c3,0,5.61,1.76,8.77,1.76h.35c.88,0,1.41,1.05,1.58,1.93a50.07,50.07,0,0,1,2.28,14.39,34.07,34.07,0,0,1-1.4,10.18c-3.34,11.58-10.71,20.35-19.83,27.9-5.62,4.74-11.58,9.13-18.95,11.23a3.72,3.72,0,0,0-1.06,1.23,111.83,111.83,0,0,0,13.34,14,83.43,83.43,0,0,0,24.92,16.14c4.21,1.58,8.25,3.69,10.7,8.08A12,12,0,0,1,1252.09,401ZM1180,418.68l-.17-.36-.18.36ZM1206.64,336c2.63-2.63,5.08-5.27,7.54-8.07a27.07,27.07,0,0,0,7.2-19c0-1.93-.18-3.68-.35-5.61-.36-1.76-1.06-2.63-2.81-2.63h-1a102.29,102.29,0,0,0-12.82,2.1c-3.68.7-7.54,1.23-11,2.81-1.93.88-3,1.75-3,3.86-.17,10.53-.35,20.88-.35,31.24,0,.35-.17.87-.17,1.23a2.45,2.45,0,0,0,1,2.1C1196.63,342.51,1202.25,340.58,1206.64,336Zm29.13-43a.63.63,0,0,1,.35.18l.17-.18ZM1246,408.85a2.53,2.53,0,0,1-.36.7h1.58a.8.8,0,0,0-.87-.7Z" transform="translate(-120.79 -196.09)"/><path d="M1316.14,403.58a1.63,1.63,0,0,0-.17.88c0,1.23,1.23,1.76,1.58,2.81a8.68,8.68,0,0,1,.87,3.33c0,1.76-1.05,3-3.51,4.21-3,1.23-6,2.46-9,3.51a273.27,273.27,0,0,1-26.85,7.2c-1.93.35-3.86,1.05-6,1.4-.35,0-.88.18-1.23.18-1.41,0-2.46-.7-3-2.63-1.06-2.64-2.29-5.27-3.16-8.08-.88-2.63-1.58-5.26-2.28-7.89a12.68,12.68,0,0,1-.36-2.11c0-1.75.88-3,2.81-4,2.81-1.4,5.79-2.45,8.78-3.68.87-.18,1.75-.18,2.63-.35,3.33-.88,4.91-1.58,4.91-3,0-1.05-.87-2.63-2.1-4.91a19.17,19.17,0,0,1-2.64-6.84,120.35,120.35,0,0,1-1.93-19.31v-4.56c0-8.07-.52-16.32-.87-24.22-.53-8.6-.71-17.2-1.06-25.8-.17-3.33-.17-3.5-3.86-4-1.93-.53-3.33-1.23-4-3.16a36.33,36.33,0,0,0-1.76-3.69,4.56,4.56,0,0,1-.35-1.22,2.28,2.28,0,0,1,.7-1.76,3.41,3.41,0,0,0,.53-1.75,2,2,0,0,0-.53-1.41,4.82,4.82,0,0,1-1.93-3.68c0-1.58.7-3.34.88-5.09,0-1.23,1.4-2.11,2.63-2.63,3.69-1.23,7.2-3,11.06-3.69,7.72-1.23,15.44-3,23.51-3.16a26.17,26.17,0,0,0,5.27-.53,6.77,6.77,0,0,1,1.75-.17,17.68,17.68,0,0,1,4.39.7,3.5,3.5,0,0,1,2.63,3.16,3.71,3.71,0,0,1-.87,2.11c-.36.35-.53.87-.88,1.05a3.9,3.9,0,0,0-2.63,2.1c1.75.88.87,3.51,3,4.39.53.35,1,.7,1,1.23s-.17.88-.88,1.23c-.17,2.63-1.93,3.68-4.21,4.39-2.1.87-4,2.1-6.14,2.8-2.1.88-2.63,2.29-2.63,4.22,0,9.82-.18,19.48-.18,29.13-.17,18.77-.35,37.55-.35,56.51v.35c0,1.58-.7,3.33-.7,4.91a2.87,2.87,0,0,0,1.05,2.46,2.92,2.92,0,0,0,2.28.87c1.41,0,3-.7,4.57-.7h.35c5.61.35,10.88.88,14.91,5.79C1320,401.65,1318.07,402.71,1316.14,403.58Zm-26-8.07a.83.83,0,0,0,.88-.88v-.35c-.18-1-.35-2.46-.88-3a1.32,1.32,0,0,0-.7-.35c-.88,0-1.58.87-2.11,1.23-1.23.7-2.28,1.58-2.28,3v.7C1286.83,395.69,1288.42,395.69,1290.17,395.51Z" transform="translate(-120.79 -196.09)"/><path d="M1343.34,287.76c-.53.35-1.23,1.23-1.93,1.23-.18,0-.53-.18-.88-.7a1.92,1.92,0,0,0-1.75-1.06h-.88c-.53,0-.7-.35-.88-1.23a11.1,11.1,0,0,1-.17-2.28,12.76,12.76,0,0,1,2.8-7.89c1.76-2.11,3.34-4,5.09-6.15,3.69-4.21,7.37-8.6,10.88-13a9.77,9.77,0,0,1,4.39-3.16,3.37,3.37,0,0,1,1.23-.18,1.29,1.29,0,0,1,1,.35c1.41,1.93,4.21,2.46,4.92,5.09.17.7,1,1.76,1.4,1.76h.53c3.16,0,3.16,3.33,5.09,4.74a2,2,0,0,1,1,1.93,3.41,3.41,0,0,1-.53,1.75,32.22,32.22,0,0,1-3,3.86c-6.32,6.49-12.81,13-19.3,19.48a27.59,27.59,0,0,1-4.22,3.34,4.18,4.18,0,0,1-1.4.35,4,4,0,0,1-4-3.69v-.17a35.31,35.31,0,0,1,.35-4.22c0-.17.18-.17.18-.17v.17c-.35,0-.35.18-.35.18v.18C1343.16,288.29,1343.34,288.11,1343.34,287.76Z" transform="translate(-120.79 -196.09)"/><path d="M1483.2,371.12c0,1.93-.17,3.86-.35,5.79a86.4,86.4,0,0,1-6.31,21.76,13.57,13.57,0,0,1-3.16,4.39c-1.41,1.58-2.81,2.8-3.51,4.73-1.23,3.16-4.39,4.57-7,6.32a116.2,116.2,0,0,1-11.23,6.32,17.78,17.78,0,0,1-5.09,1.76,97.25,97.25,0,0,1-17.2,1.75,68.26,68.26,0,0,1-17.73-2.28,33.62,33.62,0,0,1-19.3-14.22,8.39,8.39,0,0,1-1.76-4.91,8,8,0,0,1,2.11-5.09,1.52,1.52,0,0,1,1-.53,1.06,1.06,0,0,1,.71.18,21.16,21.16,0,0,0,2.8.7,2.51,2.51,0,0,0,1.76-.7,1,1,0,0,1-.53-.7c0-.18,0-.18.18-.35.7-.71,1.75,0,2.45-1.06.53-1.05.53-3,1.93-3h.18c.53,0,.88.18,1.4.18.71,0,1.41-.18,1.93-.18a5.64,5.64,0,0,1,3.34.88c.88.52,1.93,1.23,2.81,1.75a30.32,30.32,0,0,0,17,6c2.46.17,4.91.53,7.37.53a33.22,33.22,0,0,0,4.21-.36,18.89,18.89,0,0,0,8.07-3.15c8.25-6,12.11-14.39,14.22-24.05v-.7c-.18-5.09-.35-7.72-3.51-7.72a17.46,17.46,0,0,0-5.09,1.05,101.56,101.56,0,0,1-16.15,4.92,83.57,83.57,0,0,1-13.16,1.23,49.67,49.67,0,0,1-14.21-1.93c-4.74-1.41-9.3-3.16-13-6.67a10.56,10.56,0,0,1-3.33-6.15c-.53-2.63-1.93-5.26-2.81-8.07a25.34,25.34,0,0,1-.88-7.19,34.47,34.47,0,0,1,2.46-12.64c6.84-17,16.67-31.94,31.59-43.17,8.25-6.14,17.2-9.83,27.55-9.83h1.4c10.88.35,18.08,5.79,22.64,15.27,2.28,5.09,2.81,10.53,3.51,16a7.27,7.27,0,0,1-.88,3.86,40.67,40.67,0,0,0-4.21,8.25,2.13,2.13,0,0,1-2.1,1.58c-.88,0-1.93-.35-2.81-.35h-.35l.17.17h-1.58v-.17c-2.1,0-3.68,0-3.86-3.16,0-1.93-.7-4.92-3.51-5.09-2.8-.35-4.38-1.58-4.73-4.39a13.67,13.67,0,0,0-3.34-6.49c-1-1.23-1.75-1.76-2.81-1.76a8.9,8.9,0,0,0-1.93.36,24.58,24.58,0,0,0-10.53,7.19c-6.14,6.67-12.28,13.51-15.79,21.94-3.69,4.38-4.74,9.65-6,14.91a6.84,6.84,0,0,0-.17,1.76c0,2.45,1.58,4.21,4.38,4.74a27.36,27.36,0,0,0,5.44.52,28.56,28.56,0,0,0,5.44-.52c4.22-.88,8.43-1.93,12.46-3a48.55,48.55,0,0,1,14.22-2.45,19.76,19.76,0,0,1,3.16.17c3.68.53,7.37.88,9.83,4.21a4.36,4.36,0,0,0,2.1,1.58c2.46.88,4.56,1.93,4.56,4.74v.88c0,.35.53.88.71,1.23C1482.15,362.34,1483.2,366.55,1483.2,371.12Zm-16.49-17.2a1,1,0,0,0-.18-.7,3.91,3.91,0,0,0-2.45-1.06h-.53c-.18,0-.53.53-.7.88v.18c0,.17,0,.35.17.35,1.06.17,2.11.52,3.16.7C1466.36,354.27,1466.53,354.09,1466.71,353.92Zm3.51-32.47c-.35.53-.53.88-.7.88s-.35-.35-.53-.88Zm5.26,52.83c0-2.29.18-4.39.18-6.67a19.72,19.72,0,0,0-3.34-11.94,6.2,6.2,0,0,0-.87,3.16c0,.88.17,1.58.17,2.28.7,2.64,1.58,5.27,2.46,7.73.7,2.28-.35,4.91,1.4,7.37Zm-1.4,6.31-.35-.17v.35Z" transform="translate(-120.79 -196.09)"/></svg>