<svg id="Layer_1" data-name="Layer 1" xmlns="http://www.w3.org/2000/svg" viewBox="0 0 1376.98 361.39"><defs><style>.cls-1{fill:#c03431;}.cls-2{font-size:175.49px;font-family:JuzhoKaizen, Juzho Kaizen;}.cls-3{letter-spacing:-0.05em;}.cls-4{letter-spacing:-0.08em;}.cls-5{letter-spacing:-0.06em;}.cls-6{letter-spacing:-0.07em;}.cls-7{letter-spacing:0em;}.cls-8{letter-spacing:-0.09em;}.cls-9{letter-spacing:-0.06em;}</style></defs><path d="M151.08,278.75c3.55.53,6.59,0,8.44-3.62.34-.66,1.41-1,2.18-1.38,1.49-.78,3-1.6,4.53-2.25,2-.81,3.94-2,6-2.11,5.14-.31,5.21-.17,4.84-6.18-7.65,1.77-14.22,5.79-21,9.39l-.73-.93c2.42-2.07,4.84-4.12,7.25-6.2,1.79-1.55,3.53-3.16,5.33-4.69a4.87,4.87,0,0,1,2-1.26c4-.76,6.13-3.68,8.38-6.65,3.1-4.1,6.36-8.09,9.69-12a24.66,24.66,0,0,1,3.73-3l1,.92c-1.46,2.17-3,4.31-4.37,6.51-.61.94-1.44,2-1.47,3a2.76,2.76,0,0,0,1.78,2.07,3.29,3.29,0,0,0,2.72-1.31c2.86-5.77,7.85-9.08,13.19-12.13a4.6,4.6,0,0,0,2.15-3.28c-.13-3.72.86-4.83,4.52-4.17l2.2.42,2.14-5.66-.53-1c-1.92.55-3.82,1.19-5.77,1.62a11.11,11.11,0,0,1-2.76,0c.3-.91.33-2.2,1-2.68a32.42,32.42,0,0,1,6.12-3.71c4.39-2,9-3.47,13.33-5.52a23.38,23.38,0,0,0,6.17-4.48c2.63-2.6,5.53-2.32,7.8,1.4l9.24-6v5.32l1,.65c.89-1,1.75-2,2.69-3s1.71-2.13,2.81-2.5c14-4.72,28.55-6.89,43.18-7.77,12.32-.74,24.72-.28,37.08,0a11.81,11.81,0,0,1,7.19,2.64c2.52,2.29,5.29,3.32,8.33,4.38a59.74,59.74,0,0,1,8.21,4.08c6.57,3.49,13.13,7,19.66,10.54,13.9,7.57,26.36,17,36.75,29,4.87,5.63,10,11.05,14.7,16.79a73.49,73.49,0,0,1,7.36,10.72c3.05,5.43,5.36,11.28,8.58,16.6,1.44,2.38,4.3,3.9,7.22,6.41-.58,6.28,6,10.81,8,17.31.33,1.07,1.15,2.23.95,3.18-.47,2.18-1,4,1.91,4.89.46.15.75,2.39.37,3.37-1.42,3.6-.55,6.05,2.64,8.25,1,.7,1.34,2.78,1.5,4.27.24,2.32-.33,4.78.16,7,.92,4.24,2.59,8.32,3.49,12.56.5,2.36.92,5.34-.06,7.31-3.65,7.29-3.85,15.25-5.22,23A102.32,102.32,0,0,0,467.47,402c-.2,4.22-2.13,7.33-5.9,8.91-3.15,1.31-5.13,3.47-7.05,6.16-2.56,3.6-5.73,6.77-8.57,10.17-.7.84-1.07,1.95-1.7,2.86-.8,1.17-1.47,2.78-2.62,3.31-2.4,1.12-3.11,2.38-1.9,4.83.36.73,0,1.79,0,2.69l-1.38,1a9.39,9.39,0,0,0-1.11-2.49c-2.7-3.14-4.93-3.31-8.32-.8-.82.61-1.66,1.22-2.52,1.78-2.66,1.71-3.6,4-2.54,7.07a36.21,36.21,0,0,1,.89,4.68c-5.4-1.56-5.83-1.27-7,4a13,13,0,0,1-10.37,9.73c-2.9.41-4.47-1.49-3.81-4.34a11.42,11.42,0,0,0-.25-3.31c-1,.54-2.48.83-2.94,1.68-1.49,2.7-2.49,5.67-3.91,8.42a7.74,7.74,0,0,1-2.88,3.46c-5.39,2.62-10.71,5.26-14.6,10a1.12,1.12,0,0,1-.54.41c-10,1.74-16.58,10.27-26,13.12-12.64,3.84-25.27,7.8-38.08,10.94a171.8,171.8,0,0,1-49.76,5c-19.46-1-37.83-6.38-54.18-17.5-9.08-6.17-15.86-14.53-21.94-23.45-3.39-5-6-10.43-9.25-15.54a60.24,60.24,0,0,0-5-6c-2.17-2.61-4.43-5.15-6.46-7.87-1.33-1.78-1-3.46,1.21-4.43,2.47-1.08,2.43-2.81,1.17-4.74-3.42-5.19-5.62-10.69-5.2-17.09.17-2.56-1.45-3.41-3.84-2.46-5.78,2.27-9.81.09-11-5.95-.09-.43-.19-1.06,0-1.32,2.68-3.05.65-5.72-.53-8.54q-3.93-9.35-7.67-18.77a7.57,7.57,0,0,1-.24-4.13c4.09,4.3,5.09,10.32,8.73,15-1.19-7.16-3.54-13.94-5-21.11a37.73,37.73,0,0,0,2.9,5.4c2.93,3.84,5.92,7.58,6.86,12.53.12.68,1.39,1.14,2.12,1.7.21-.89.81-1.91.56-2.66-.69-2.1-1.73-4.08-2.93-6.76l3,.58c.1-.29.32-.6.29-.89-.22-2.5-.68-5-.69-7.51,0-3,.36-6.09.49-9.14a72.21,72.21,0,0,0,.09-7.5c-.19-3.19-.57-6.38-1.07-9.54-.15-.9-1-1.69-1.53-2.53-.51.9-1.4,1.78-1.47,2.72-.2,2.78-.07,5.59-.07,8.39l-1.67.3c-.39-1.29-1.22-2.62-1.09-3.85.78-7.5,1.8-15,2.71-22.45.64-5.19,1.23-10.38,1.85-15.57.12-1,.31-2,.52-3.31l3.28,1.58,2.58-5.07c-.41-.52-.46-.66-.55-.69-5-1.28-5-1.28-4.33-7a71.54,71.54,0,0,1,1-7.48c.31-1.32,1.34-2.47,2.54-4.59-1.52.38-2.8.3-3.39.9-5,5.18-11,9.85-14.61,15.9-5.14,8.55-9.25,17.9-9.93,28.26-.09,1.43-.88,2.82-1.34,4.22l-1.25-.24a13.61,13.61,0,0,1-.32-2.81c.83-10.44,3-20.26,7.91-29.91,3.17-6.18,5.76-12.13,11.26-16.59,1.18-1,1.23-3.34,1.8-5.06ZM427,285a28.61,28.61,0,0,0,.91,5.76c.41,1.14,1.75,2,2.83,2.79.16.12,1.56-.8,1.66-1.37.47-2.62-2.75-6.64-5.49-7.08,1.06-4.82-.73-8.55-4.51-11.42-3.38-2.56-6.87-5-10.24-7.53a15.55,15.55,0,0,1-2.06-2.35l.68-.61c.72.49,1.38,1.26,2.17,1.41,1.43.29,3.12.63,4.32.09.56-.25.82-3,.19-3.74a27,27,0,0,0-6.41-5.76c-4.09-2.47-8.5-4.42-12.76-6.62-2.51-1.29-5-2.62-7.48-3.92-1.77,3.24-1.9,3.55.07,4.59a7.59,7.59,0,0,1,4.47,7.8,2.39,2.39,0,0,0,.34,1.63c3.2,3.07,6.2,6.43,9.8,9,2.51,1.77,3.21,3.26,1.93,5.89a12.69,12.69,0,0,0-1.53,3.8c-.12,1.06.23,2.78,1,3.22,4.14,2.44,5.43,6.22,5.88,10.65.33,3.3,1.64,6.13,4.81,7.77.47.25,1.09.71,1.15,1.14.74,5,5.71,8.84,4.33,14.53-.11.43.37,1,.6,1.51A22,22,0,0,1,425.4,320c1.06,4.08,1.84,8.23,2.94,12.29.23.87,1.37,1.49,2.09,2.22.67-.75,2-1.56,1.91-2.24-.69-7.59,1.27-15.56-3.11-22.67a4.94,4.94,0,0,1-.49-3.3c.41-2.06-.16-3.11-2.13-3.92-3.1-1.27-4.57-3.63-3.93-7.14a8.91,8.91,0,0,0-.13-3.41c-.91-4.29-4-6.35-7.68-4.93L409,278.27c5.24-3.06,7.78-2.61,11,1.63.82,1.1,1.45,2.48,2.51,3.23A21.76,21.76,0,0,0,427,285Zm-36,1.11c-4.23-.78-7.43-2.73-9.48-6.82s-4.72-7.69-7.12-11.51c-.3-.48-.88-1-.83-1.43.43-3.38-1.47-4.44-4.37-4.78a3.34,3.34,0,0,1-2-1.16c-3-3.74-7.4-4.85-11.47-6.61-1.75-.76-2.58-.13-3.4,1.59a10.46,10.46,0,0,1-3.5,4.33,47.06,47.06,0,0,1-10.35,5.35c-10.44,3.38-21,6.37-31.58,9.35a10.66,10.66,0,0,1-5.11-.09,7.73,7.73,0,0,0-7.3,1.89c-3.92,3.29-3.94,3.27-8.05-.46a47.31,47.31,0,0,1-3.12,5.06,19.08,19.08,0,0,1-4.41,4.29c-3.18,2-6.6,3.59-9.94,5.32a10.26,10.26,0,0,1-3.11,1.32,10.91,10.91,0,0,0-9.14,6.38c-.91,1.89-2.42,2.94-4.47,1.93-4.48-2.21-7.38.05-10.1,3.22a28.19,28.19,0,0,1-2.37,2.26l-.58-.55,2.12-4.9c-1.24.07-2.05-.13-2.46.18a14.24,14.24,0,0,1-9.65,2.82c-2.26-.07-3.69,1.4-4,3.82,3.51,1,6.9,1.88,10.13,3.11.85.32,1.3,1.82,1.81,2.84a22,22,0,0,1,.92,2.59,12.78,12.78,0,0,0,2-2.2c1.33-2.37,2.45-4.86,3.8-7.23.23-.41,1.14-.52,1.75-.58.16,0,.53.7.55,1.08a87,87,0,0,1,.2,9.68,4.85,4.85,0,0,1-2.1,3.59,5.23,5.23,0,0,0-3.31,4.72,54.33,54.33,0,0,1-1.37,7.06c-1.45,5.53-3.28,11-4.48,16.54-.71,3.31-2.07,5.45-5.43,6.22a8.88,8.88,0,0,0-2.17,1.27l3.09,1.37-3.72,2,3.41,2.14a16,16,0,0,0-.55,3.54c.24,3.8.25,7.39-1.93,10.91-1.09,1.77-1.21,4.37,1.89,5.62a4.28,4.28,0,0,1,2,3.41c-1,12.67,5.2,22.6,12,32.34a52.48,52.48,0,0,0,4.41,5.26c2.89,3.19,6.46,4.81,10.78,4,12-2.37,24.1-4.5,36-7.36A328.35,328.35,0,0,0,354.28,398a12.58,12.58,0,0,1,2.63-.6l.29.8c-3.38,2.15-6.61,4.62-10.19,6.4-9.3,4.64-18.78,8.91-28.13,13.44-4.4,2.13-8.64,4.6-13,6.74-2.32,1.13-5,2.91-7.22,2.61-7-.93-9.11,5.37-13.84,7.86a8.76,8.76,0,0,0,3.4,1.28c5.28,1,11-.8,15.95,2.5.65.43,2-.12,3-.31,6.28-1.22,12.72-1.91,18.77-3.83,6.58-2.1,12.79-5.33,19.15-8.1,2.34-1,4.53-2.67,7-3.16,6.14-1.25,10.5-5,15.16-9.32l-5.23-2c2.33-2.31,4.05-4.37,6.16-5.87.65-.46,2.38.7,3.65.95a3.56,3.56,0,0,0,2.32-.13,66.07,66.07,0,0,0,7.66-5.47c2.73-2.39,4.93-5.4,7.73-7.69,3.36-2.74,3.71-4.7,1.26-8.45-.77-1.17-1.22-3.48-.58-4.46,2.56-3.89,5.61-7.46,8.66-11.38-.2-.89-.85-2.27-.66-3.53.14-1,1.34-1.78,2.07-2.66.51.82,1,1.64,1.51,2.47s.75,1.41,1.12,2.12c.55-.75,1.56-1.49,1.56-2.23a58.42,58.42,0,0,0-.61-9.55,20.52,20.52,0,0,1,1.12-12.08,9.8,9.8,0,0,0,.26-6.9,21,21,0,0,1-1.25-14.05,4.81,4.81,0,0,0-1.79-4.08c-1.62-1.09-1.8-2-1.86-3.84-.07-2.22-.52-5.23-2-6.45-3.59-3-4.4-6.25-3-10.31a40.15,40.15,0,0,1,2.84-6.14c1.11-2.06,2.1-4,.49-6.27a6.94,6.94,0,0,1-1.15.17c-1.15-.05-2.3-.13-3.44-.2.13-1.1.29-2.19.38-3.29a6,6,0,0,0,0-2.52c-1.3-3.23-1.25-3.28,2.12-3.08a3,3,0,0,0,2.42-1.13c.31-.59-.41-1.68-.6-2.56a18.66,18.66,0,0,1-.51-3.38,7.33,7.33,0,0,1,.68-2.14c-4.43-.17-5,.65-5.47,7.69-2.92-.52-3.77-1.27-4-4.44-.33-5.95-3-9.95-8.87-11.63a3.57,3.57,0,0,1-2.93-4,17,17,0,0,0-.23-2.55c-2,.21-3.69.29-5.35.58a39.49,39.49,0,0,0-3.93,1.08c.77,1.38,1.27,3,2.37,4.07,2.31,2.16,4.92,4,7.44,5.93.74.57,1.55,1,2.61,1.74l1.14-4.65c1.86,2.7,5.4,3.55,2.91,7.42-.37.56.43,2.31,1.15,3.07a16.67,16.67,0,0,1,4.68,10.44,18.56,18.56,0,0,0,.85,3.21ZM408.87,251l1.22-1.14a57.88,57.88,0,0,0-3-5c-7.55-10.25-17.37-18.05-28.42-23.94-6.67-3.56-14.37-5.15-21.53-7.8-22.4-8.31-45-10.37-67.89-2.24-6.13,2.17-12.19,4.56-18.26,6.91-2.45,1-2.18,2.13-.29,3.65,2.38,1.89,3.79.68,5.52-1,.92-.91,2.52-1.14,3.81-1.68.18,1.09.37,2.19.63,3.74,1.18-.11,2.9.22,4-.46,3.14-2,6.45-1.69,9.89-1.91,3-.19,6.11-1.65,8.9-3.08.81-.41.79-2.61,1-4,.44-3,1.77-4.82,5.1-4.59,6.37.45,12.75.82,19.12,1.31a6.47,6.47,0,0,1,2.87,1,2.74,2.74,0,0,1,1.08,1.88c0,.37-.9.93-1.49,1.15-2,.76-4.11,1.35-6.14,2.11-1.82.68-2.49,0-2.71-1.81a16.9,16.9,0,0,0-.95-3.09l-.81-.22c-.53,3.78-2.93,3.53-5.55,3.35-1.13-.08-2.32.75-3.48,1.16l.08,1.31c4.85.66,9.69,1.51,14.57,1.91,2.79.22,8.48.89,10.73,2.19a16.62,16.62,0,0,1,2.65,2.4c-1.15.79-2.24,1.68-3.46,2.35-1,.57-3,.67-3.16,1.35-.59,2.17-2,1.88-3.48,1.76-4.45-.36-8.89-.86-13.34-1.18a24.22,24.22,0,0,0-4.13.38l0,.94c3.71.41,7.4.94,11.11,1.22,4.77.37,9.55.68,14.33.76,3,0,6-.4,9.68-.66l-4.58-5.15.29-1,16.94.8-.08-.73-5.81-3.14.69-1.5A33.65,33.65,0,0,1,358.4,221c1.07.63,1.89,2.1,3,2.25,5.75.82,10,4.35,14.46,7.54,1.68,1.21,3.1,2.76,5.27.57.47-.48,2.17-.09,3.11.32a44.13,44.13,0,0,1,4.45,2.6c2,1.17,4.6,1.89,3.58,5.23-.13.45.69,1.39,1.27,1.81,2.25,1.65,4.53,3.26,6.9,4.73C403.16,247.78,406,249.33,408.87,251ZM182,414.74c-1.22,5.59-.08,7.18,2.59,10.84,2.86,3.93,4.65,8.63,7.06,12.91a22.84,22.84,0,0,0,4,5.62c3.09,2.86,6.49,5.38,9.82,8a15.71,15.71,0,0,0,3.21,1.84c3.18,1.41,6.4,2.73,9.61,4.09l10.7,4.51.82-1.28c-.89-1.08-1.76-2.18-2.68-3.23-1.42-1.63-3.31-3-4.22-4.89-2-4.06-5.12-6.23-9.27-7.54-1.4-.44-3.26-1.43-3.68-2.61-1.36-3.78-4.22-5.49-7.58-6.93a12.22,12.22,0,0,1-4.39-2.6c-4.55-5.11-8.87-10.42-13.28-15.65C183.85,416.76,182.94,415.75,182,414.74Zm87.17-161.45a84.62,84.62,0,0,0,9.64-.64c2.76-.47,2.72-3.15,2.62-5.29,0-.82-1.18-2.26-1.83-2.27-4.75-.07-9.44-.81-14.21,1.07C252,251.43,242.27,261,233.51,271.94a17.71,17.71,0,0,0-1.63,3l14-5.65a1.52,1.52,0,0,0,.53-.42c5-5.35,11.82-7.69,18-11.09C266.3,256.71,267.66,254.77,269.21,253.29Zm-36.65,61.82c-3.44-3.1-6.65-6.1-10-8.89-.36-.3-2.09.32-2.52,1-1.36,2-2.4,4.25-3.64,6.55,1.56,1.09,2.79,1.59,3.69-1,.42-1.2,1.67-2.11,2.21-2.76,2.23,3.24,4.05,5.9,5.88,8.57ZM421.22,439l1,.79c4-3.45,8.23-6.76,12.11-10.39,3.2-3,2.71-5.86-1.6-9.08,1.28,6.19-1.86,9.18-6.72,11.45C423.19,433.12,421.91,436.07,421.22,439Zm-178.4,50.55c3,1.75,10.49,3.12,13,2.33.68-.21,1.75-.87,1.73-1.27a2.85,2.85,0,0,0-1.24-2.09,56.05,56.05,0,0,0-6.62-2.83,2.85,2.85,0,0,0-2.22.22C245.92,487,244.52,488.23,242.82,489.58ZM229.91,222c-3.12.69-5.93,1.15-8.62,2-.79.26-1.23,1.65-1.82,2.52a15.52,15.52,0,0,0,2.85.92,21.72,21.72,0,0,0,5.68.22,10.25,10.25,0,0,0,4.07-2.05,2.17,2.17,0,0,0,.42-2.08A9.64,9.64,0,0,0,229.91,222ZM391.75,408.17c-2.95.6-5.38,1-7.73,1.64a5,5,0,0,0-2.19,1.87c-.16.21.72,1.57.79,1.54q4.75-1.82,9.42-3.87A5.49,5.49,0,0,0,391.75,408.17Zm-236.1-10-1.23.78c1.29,2.5,2.51,5,3.93,7.47.3.5,1.31.62,2,.77.1,0,.69-1.08.53-1.33C159.21,403.26,157.42,400.72,155.65,398.17Zm15.58-97.33,1.45.4,1.77-5.06c-.93-.07-2.13-.53-2.74-.13C169.72,297.38,169.81,299.13,171.23,300.84Zm240.52,152.6c-1.58,2.76-.67,4.13,1.22,4.76.5.16,1.36-.76,2.06-1.19ZM164.34,315.54l-2.2-.8a37.56,37.56,0,0,0-1.3,4,15.72,15.72,0,0,0,2.19.82Zm15.32,33.69-1,0V357h1Z" transform="translate(-120.79 -196.09)"/><path d="M153.16,300.65c-.11,1.68.33,3.69-.44,5a49.11,49.11,0,0,0-6.58,18.61,5.13,5.13,0,0,1-.65,2.3,34.26,34.26,0,0,1-2.83,3.2c-.68-1.27-2-2.62-1.92-3.82.38-3.71.78-7.59,2.19-11,1.91-4.61,4.75-8.84,7.26-13.2.35-.6,1.14-1,1.72-1.44Z" transform="translate(-120.79 -196.09)"/><path d="M146.67,410.1c3.57-.52,4.52,1.74,5.68,3.59,2.17,3.45,4.15,7,6.46,10.38.93,1.35,2.7,2.1,3.74,3.4a11.24,11.24,0,0,1,2.08,4.23c.15.61-.75,1.86-1.47,2.2A2.45,2.45,0,0,1,161,433c-3.09-6.32-9.31-10.75-10.85-18.06C149.77,413.31,148.09,412,146.67,410.1Z" transform="translate(-120.79 -196.09)"/><path d="M141.58,345c1,2.66,1.95,4.94,2.64,7.29.13.42-.72,1.22-1.26,1.69a2,2,0,0,1-1.23-.83c-1.11-3.09-2.54-6.16-3-9.36-.31-2.07.59-4.45,1.43-6.49.33-.81,2-1.08,3-1.6.44.94,1.35,1.95,1.22,2.8C144,341,145,344.34,141.58,345Z" transform="translate(-120.79 -196.09)"/><path d="M129.51,302.37c-1-6.18,3.36-12.63,10.88-15.36-1.3,2.77-2,5-3.26,6.79a91.82,91.82,0,0,1-6,7.2A15.87,15.87,0,0,1,129.51,302.37Z" transform="translate(-120.79 -196.09)"/><path d="M128.65,304.49c1.1,6.42-1.76,11.14-5.06,15.94C121.6,315.51,124.27,306.88,128.65,304.49Z" transform="translate(-120.79 -196.09)"/><path d="M131.33,374.07c-5.53-.91-6.87-3.05-6-9.46a19.16,19.16,0,0,1,1.31,2.66c.6,2,.45,4.45,3.59,4.48C130.53,371.76,130.85,373.06,131.33,374.07Z" transform="translate(-120.79 -196.09)"/><path d="M151.16,278.65c-1.49,1.42-2.71,1.45-3.7-.58-1.13-2.29-.78-3.2,2-4.8.55,1.81,1.1,3.65,1.66,5.49Z" transform="translate(-120.79 -196.09)"/><path d="M372.09,205c2.78-1,4.5.37,5.94,2.23.16.21-.66,1.68-1,1.66C374.67,208.71,372.76,207.74,372.09,205Z" transform="translate(-120.79 -196.09)"/><path d="M433.66,441.87c-.5,2.32-1,4.49-4.24,3.72C429.67,441.93,430.51,441.19,433.66,441.87Z" transform="translate(-120.79 -196.09)"/><path d="M122.86,329.12v6.75C120.09,333.1,120.12,332.15,122.86,329.12Z" transform="translate(-120.79 -196.09)"/><path d="M179.66,349.23V357h-1v-7.73Z" transform="translate(-120.79 -196.09)"/><path class="cls-1" d="M272.58,369.16,270.07,371c-3.17-3.41-3.39-7.37-2.14-11.27s.86-7-1.79-10.2c-1.13-1.36-1.49-3.51-1.79-5.37-.57-3.55-1.76-4.71-5.28-4-2.78.59-4.14,0-4.11-3.08a8.26,8.26,0,0,0-1.25-3.83c-1.49-2.67-1.1-5.11,1.31-6.65a62.1,62.1,0,0,1,11.07-5.94c5.27-2,10.49-4.6,16.48-4.09.89.07,2.11-.91,2.78-1.73a18.27,18.27,0,0,1,11.17-6.25c10.68-2,21.44-3.57,32.12-5.57a26.53,26.53,0,0,0,7.9-3.05c2.72-1.53,5.1-1.52,7.34.77,2.07,2.12,4.18,4.22,6.28,6.33,1.42,1.43,3.31,2.59,1.76,5.21-.27.46.85,2.21,1.72,2.79a5.9,5.9,0,0,1,2.71,7.09c-.27,1.06-.47,2.51,0,3.32,3,4.82,1.88,9.78.57,14.65a16.82,16.82,0,0,0,.56,11.07,27,27,0,0,1,1,5c.54,2.84.6,5.89,1.72,8.48,2.95,6.83-.69,15-8.07,16.6-20.49,4.52-40.08,12.06-60.18,17.89a40.29,40.29,0,0,0-5.92,2.7c-2.62,1.26-5,.87-6.79-1.37a31.25,31.25,0,0,1-4.21-6.18c-1.18-2.5-1-4.89,2.2-6.17.76-.3,1.12-1.61,1.66-2.45a18.92,18.92,0,0,1-2.82-.06c-1.08-.17-2.83-.3-3.06-.91a63,63,0,0,1-2.67-9.37c-.12-.56,1.22-1.34,1.72-2.13.69-1.1,1.22-2.29,1.82-3.44Zm30.56-46.6c1.49.08,3,.56,4.28.17A100.82,100.82,0,0,0,320.1,318a3.48,3.48,0,0,0,1.25-5.34c-1.65-2-3.33-.29-4.58,1-1.58,1.66-3.16,1.72-5.25.95-2.56-.95-5-.37-6.47,2.17C304.22,318.34,303.92,320.14,303.14,322.56ZM325.88,325l2.59-2.57c-1.09-.7-2.17-1.92-3.28-1.95s-2.3,1.11-3.46,1.74Zm-28.42,11.37.4,1.78,6.77-1.45-.35-1.67Z" transform="translate(-120.79 -196.09)"/><path d="M390.93,286.14c1,1.61,2.3,3.12,2.9,4.87.33.95-.53,2.31-.86,3.48-1.05-.67-3-1.31-3-2a30.05,30.05,0,0,1,1-6.35Z" transform="translate(-120.79 -196.09)"/><path class="cls-1" d="M297.46,336.32l6.82-1.34.35,1.67-6.77,1.45Z" transform="translate(-120.79 -196.09)"/><text class="cls-2" transform="translate(412.49 205.91)"><tspan class="cls-3">S</tspan><tspan class="cls-4" x="98.98" y="0">a</tspan><tspan class="cls-5" x="209.36" y="0">f</tspan><tspan class="cls-6" x="303.07" y="0">f</tspan><tspan class="cls-7" x="396.61" y="0">o</tspan><tspan class="cls-8" x="512.25" y="0">u</tspan><tspan class="cls-9" x="611.76" y="0">r</tspan><tspan x="727.76" y="0">i’s</tspan></text></svg>